<svg xmlns="http://www.w3.org/2000/svg" xmlns:xlink="http://www.w3.org/1999/xlink" width="500" zoomAndPan="magnify" viewBox="0 0 375 374.999991" height="500" preserveAspectRatio="xMidYMid meet" version="1.0"><defs><g/></defs><g fill="#ff6a3e" fill-opacity="1"><g transform="translate(121.940111, 368.005287)"><g><path d="M 109.734375 -70.203125 C 114.898438 -56.398438 119.207031 -42.726562 122.65625 -29.1875 C 127.09375 -44.207031 131.894531 -58.613281 137.0625 -72.40625 L 208.375 -264.53125 L 244.203125 -264.53125 L 140.765625 0 L 104.5625 0 L 2.21875 -264.53125 L 40.265625 -264.53125 Z M 109.734375 -70.203125 "/></g></g></g><g fill="#1a1a1a" fill-opacity="1"><g transform="translate(-12.92054, 249.278367)"><g><path d="M 182.453125 -236.421875 C 199.398438 -226.671875 212.222656 -212.273438 220.921875 -193.234375 C 229.628906 -174.203125 233.984375 -151.921875 233.984375 -126.390625 C 233.984375 -105.265625 230.847656 -85.53125 224.578125 -67.1875 C 218.316406 -48.851562 208.800781 -34.347656 196.03125 -23.671875 C 186.507812 -15.785156 175.945312 -9.867188 164.34375 -5.921875 C 152.738281 -1.972656 138.234375 0 120.828125 0 L 27.859375 0 L 27.859375 -249.296875 L 118.390625 -249.296875 C 133.003906 -249.296875 145.128906 -248.425781 154.765625 -246.6875 C 164.398438 -244.945312 173.628906 -241.523438 182.453125 -236.421875 Z M 199.859375 -126.734375 C 199.859375 -152.035156 195.910156 -171.59375 188.015625 -185.40625 C 180.128906 -199.21875 170.726562 -208.441406 159.8125 -213.078125 C 148.90625 -217.722656 135.210938 -220.046875 118.734375 -220.046875 L 60.9375 -220.046875 L 60.9375 -29.25 L 115.59375 -29.25 C 131.84375 -29.25 145.476562 -31.160156 156.5 -34.984375 C 167.53125 -38.816406 177.515625 -47.925781 186.453125 -62.3125 C 195.390625 -76.707031 199.859375 -98.179688 199.859375 -126.734375 Z M 199.859375 -126.734375 "/></g></g></g></svg>