<svg xmlns="http://www.w3.org/2000/svg" xmlns:xlink="http://www.w3.org/1999/xlink" width="225" zoomAndPan="magnify" viewBox="0 0 168.75 30.750001" height="41" preserveAspectRatio="xMidYMid meet" version="1.0"><defs><g/><clipPath id="d07ce863a3"><path d="M 0.554688 0 L 167.945312 0 L 167.945312 30.503906 L 0.554688 30.503906 Z M 0.554688 0 " clip-rule="nonzero"/></clipPath></defs><g clip-path="url(#d07ce863a3)"><path fill="#ffffff" d="M 0.554688 0 L 167.945312 0 L 167.945312 30.503906 L 0.554688 30.503906 Z M 0.554688 0 " fill-opacity="1" fill-rule="nonzero"/><path fill="#ffffff" d="M 0.554688 0 L 167.945312 0 L 167.945312 30.503906 L 0.554688 30.503906 Z M 0.554688 0 " fill-opacity="1" fill-rule="nonzero"/></g><g fill="#ff6a3e" fill-opacity="1"><g transform="translate(8.686254, 28.503672)"><g><path d="M 7.953125 -5.09375 C 8.328125 -4.09375 8.640625 -3.097656 8.890625 -2.109375 C 9.210938 -3.203125 9.5625 -4.25 9.9375 -5.25 L 15.109375 -19.1875 L 17.71875 -19.1875 L 10.203125 0 L 7.578125 0 L 0.15625 -19.1875 L 2.921875 -19.1875 Z M 7.953125 -5.09375 "/></g></g></g><g fill="#1a1a1a" fill-opacity="1"><g transform="translate(0.350346, 19.934191)"><g><path d="M 13.234375 -17.140625 C 14.460938 -16.429688 15.390625 -15.382812 16.015625 -14 C 16.648438 -12.625 16.96875 -11.015625 16.96875 -9.171875 C 16.96875 -7.640625 16.738281 -6.207031 16.28125 -4.875 C 15.832031 -3.539062 15.144531 -2.488281 14.21875 -1.71875 C 13.53125 -1.144531 12.765625 -0.710938 11.921875 -0.421875 C 11.078125 -0.140625 10.023438 0 8.765625 0 L 2.015625 0 L 2.015625 -18.078125 L 8.578125 -18.078125 C 9.640625 -18.078125 10.519531 -18.015625 11.21875 -17.890625 C 11.914062 -17.765625 12.585938 -17.515625 13.234375 -17.140625 Z M 14.5 -9.1875 C 14.5 -11.019531 14.210938 -12.4375 13.640625 -13.4375 C 13.066406 -14.445312 12.382812 -15.117188 11.59375 -15.453125 C 10.800781 -15.785156 9.804688 -15.953125 8.609375 -15.953125 L 4.421875 -15.953125 L 4.421875 -2.125 L 8.390625 -2.125 C 9.566406 -2.125 10.550781 -2.257812 11.34375 -2.53125 C 12.144531 -2.8125 12.867188 -3.472656 13.515625 -4.515625 C 14.171875 -5.554688 14.5 -7.113281 14.5 -9.1875 Z M 14.5 -9.1875 "/></g></g></g><g fill="#1a1a1a" fill-opacity="1"><g transform="translate(27.568463, 18.322835)"><g><path d="M 3.03125 -3.1875 C 3.1875 -2.488281 3.3125 -1.882812 3.40625 -1.375 L 3.5 -1.71875 C 3.664062 -2.445312 3.785156 -2.953125 3.859375 -3.234375 L 5.71875 -9.8125 L 7.28125 -9.8125 L 8.65625 -4.9375 C 9.007812 -3.707031 9.273438 -2.519531 9.453125 -1.375 C 9.609375 -2.144531 9.765625 -2.84375 9.921875 -3.46875 L 11.46875 -9.8125 L 12.765625 -9.8125 L 10.078125 0 L 8.84375 0 L 6.734375 -7.59375 C 6.597656 -8.019531 6.503906 -8.367188 6.453125 -8.640625 C 6.410156 -8.484375 6.359375 -8.269531 6.296875 -8 L 6.15625 -7.40625 L 4.09375 0 L 2.765625 0 L 0.171875 -9.8125 L 1.5 -9.8125 Z M 3.03125 -3.1875 "/></g></g></g><g fill="#1a1a1a" fill-opacity="1"><g transform="translate(40.503766, 18.322835)"><g><path d="M 8.1875 -8.65625 L 2.390625 -8.65625 L 2.390625 -5.640625 L 7.8125 -5.640625 L 7.8125 -4.5 L 2.390625 -4.5 L 2.390625 -1.15625 L 8.40625 -1.15625 L 8.40625 0 L 1.078125 0 L 1.078125 -9.8125 L 8.1875 -9.8125 Z M 8.1875 -8.65625 "/></g></g></g><g fill="#1a1a1a" fill-opacity="1"><g transform="translate(49.643426, 18.322835)"><g><path d="M 6.984375 -9.21875 C 7.347656 -8.945312 7.601562 -8.640625 7.75 -8.296875 C 7.894531 -7.953125 7.96875 -7.648438 7.96875 -7.390625 C 7.96875 -6.398438 7.503906 -5.675781 6.578125 -5.21875 C 7.203125 -5.03125 7.660156 -4.722656 7.953125 -4.296875 C 8.253906 -3.878906 8.40625 -3.378906 8.40625 -2.796875 C 8.40625 -2.347656 8.289062 -1.890625 8.0625 -1.421875 C 7.84375 -0.960938 7.445312 -0.601562 6.875 -0.34375 C 6.394531 -0.113281 5.722656 0 4.859375 0 L 1.015625 0 L 1.015625 -9.8125 L 4.78125 -9.8125 C 5.332031 -9.8125 5.769531 -9.765625 6.09375 -9.671875 C 6.425781 -9.578125 6.722656 -9.425781 6.984375 -9.21875 Z M 6.671875 -7.15625 C 6.671875 -7.75 6.476562 -8.144531 6.09375 -8.34375 C 5.71875 -8.550781 5.15625 -8.65625 4.40625 -8.65625 L 2.3125 -8.65625 L 2.3125 -5.6875 L 4.515625 -5.6875 C 5.253906 -5.6875 5.796875 -5.800781 6.140625 -6.03125 C 6.492188 -6.269531 6.671875 -6.644531 6.671875 -7.15625 Z M 6.203125 -1.390625 C 6.515625 -1.535156 6.738281 -1.738281 6.875 -2 C 7.007812 -2.269531 7.078125 -2.550781 7.078125 -2.84375 C 7.078125 -3.21875 6.976562 -3.535156 6.78125 -3.796875 C 6.59375 -4.066406 6.316406 -4.265625 5.953125 -4.390625 C 5.660156 -4.484375 5.238281 -4.53125 4.6875 -4.53125 L 2.3125 -4.53125 L 2.3125 -1.15625 L 4.9375 -1.15625 C 5.238281 -1.15625 5.484375 -1.171875 5.671875 -1.203125 C 5.859375 -1.242188 6.035156 -1.304688 6.203125 -1.390625 Z M 6.203125 -1.390625 "/></g></g></g><g fill="#1a1a1a" fill-opacity="1"><g transform="translate(58.783086, 18.322835)"><g/></g></g><g fill="#ff6a3e" fill-opacity="1"><g transform="translate(62.599085, 18.322835)"><g><path d="M 7.1875 -9.296875 C 7.851562 -8.921875 8.351562 -8.359375 8.6875 -7.609375 C 9.03125 -6.859375 9.203125 -5.976562 9.203125 -4.96875 C 9.203125 -4.144531 9.078125 -3.367188 8.828125 -2.640625 C 8.585938 -1.921875 8.21875 -1.351562 7.71875 -0.9375 C 7.34375 -0.625 6.925781 -0.390625 6.46875 -0.234375 C 6.007812 -0.078125 5.4375 0 4.75 0 L 1.09375 0 L 1.09375 -9.8125 L 4.65625 -9.8125 C 5.226562 -9.8125 5.703125 -9.773438 6.078125 -9.703125 C 6.460938 -9.640625 6.832031 -9.503906 7.1875 -9.296875 Z M 7.859375 -4.984375 C 7.859375 -5.984375 7.703125 -6.753906 7.390625 -7.296875 C 7.085938 -7.835938 6.71875 -8.195312 6.28125 -8.375 C 5.851562 -8.5625 5.316406 -8.65625 4.671875 -8.65625 L 2.390625 -8.65625 L 2.390625 -1.15625 L 4.546875 -1.15625 C 5.191406 -1.15625 5.726562 -1.226562 6.15625 -1.375 C 6.59375 -1.53125 6.984375 -1.890625 7.328125 -2.453125 C 7.679688 -3.015625 7.859375 -3.859375 7.859375 -4.984375 Z M 7.859375 -4.984375 "/></g></g></g><g fill="#ff6a3e" fill-opacity="1"><g transform="translate(72.492396, 18.322835)"><g><path d="M 8.1875 -8.65625 L 2.390625 -8.65625 L 2.390625 -5.640625 L 7.8125 -5.640625 L 7.8125 -4.5 L 2.390625 -4.5 L 2.390625 -1.15625 L 8.40625 -1.15625 L 8.40625 0 L 1.078125 0 L 1.078125 -9.8125 L 8.1875 -9.8125 Z M 8.1875 -8.65625 "/></g></g></g><g fill="#ff6a3e" fill-opacity="1"><g transform="translate(81.632057, 18.322835)"><g><path d="M 4.0625 -2.609375 C 4.257812 -2.097656 4.421875 -1.585938 4.546875 -1.078125 C 4.710938 -1.640625 4.890625 -2.175781 5.078125 -2.6875 L 7.734375 -9.8125 L 9.0625 -9.8125 L 5.21875 0 L 3.875 0 L 0.078125 -9.8125 L 1.5 -9.8125 Z M 4.0625 -2.609375 "/></g></g></g><g fill="#ff6a3e" fill-opacity="1"><g transform="translate(90.771717, 18.322835)"><g><path d="M 8.1875 -8.65625 L 2.390625 -8.65625 L 2.390625 -5.640625 L 7.8125 -5.640625 L 7.8125 -4.5 L 2.390625 -4.5 L 2.390625 -1.15625 L 8.40625 -1.15625 L 8.40625 0 L 1.078125 0 L 1.078125 -9.8125 L 8.1875 -9.8125 Z M 8.1875 -8.65625 "/></g></g></g><g fill="#ff6a3e" fill-opacity="1"><g transform="translate(99.911377, 18.322835)"><g><path d="M 2.328125 -1.15625 L 7.171875 -1.15625 L 7.171875 0 L 1.03125 0 L 1.03125 -9.8125 L 2.328125 -9.8125 Z M 2.328125 -1.15625 "/></g></g></g><g fill="#ff6a3e" fill-opacity="1"><g transform="translate(107.530049, 18.322835)"><g><path d="M 5.171875 -9.96875 C 6.140625 -9.96875 6.992188 -9.757812 7.734375 -9.34375 C 8.472656 -8.925781 9.039062 -8.332031 9.4375 -7.5625 C 9.832031 -6.789062 10.03125 -5.898438 10.03125 -4.890625 C 10.03125 -3.890625 9.828125 -3.003906 9.421875 -2.234375 C 9.015625 -1.460938 8.457031 -0.867188 7.75 -0.453125 C 7.050781 -0.0351562 6.269531 0.171875 5.40625 0.171875 C 4.445312 0.171875 3.609375 -0.046875 2.890625 -0.484375 C 2.179688 -0.929688 1.628906 -1.53125 1.234375 -2.28125 C 0.835938 -3.03125 0.640625 -3.863281 0.640625 -4.78125 C 0.640625 -5.820312 0.835938 -6.734375 1.234375 -7.515625 C 1.628906 -8.304688 2.164062 -8.910156 2.84375 -9.328125 C 3.53125 -9.753906 4.304688 -9.96875 5.171875 -9.96875 Z M 1.984375 -4.75 C 1.984375 -4 2.125 -3.332031 2.40625 -2.75 C 2.695312 -2.175781 3.09375 -1.734375 3.59375 -1.421875 C 4.101562 -1.109375 4.679688 -0.953125 5.328125 -0.953125 C 5.992188 -0.953125 6.582031 -1.109375 7.09375 -1.421875 C 7.601562 -1.734375 7.992188 -2.1875 8.265625 -2.78125 C 8.546875 -3.375 8.6875 -4.078125 8.6875 -4.890625 C 8.6875 -5.691406 8.546875 -6.394531 8.265625 -7 C 7.992188 -7.601562 7.601562 -8.0625 7.09375 -8.375 C 6.59375 -8.695312 6.023438 -8.859375 5.390625 -8.859375 C 4.304688 -8.859375 3.46875 -8.5 2.875 -7.78125 C 2.28125 -7.0625 1.984375 -6.050781 1.984375 -4.75 Z M 1.984375 -4.75 "/></g></g></g><g fill="#ff6a3e" fill-opacity="1"><g transform="translate(118.190712, 18.322835)"><g><path d="M 7.546875 -9.171875 C 7.878906 -8.898438 8.125 -8.570312 8.28125 -8.1875 C 8.445312 -7.8125 8.53125 -7.429688 8.53125 -7.046875 C 8.53125 -5.953125 8.144531 -5.128906 7.375 -4.578125 C 6.851562 -4.191406 6.050781 -4 4.96875 -4 L 2.359375 -4 L 2.359375 0 L 1.0625 0 L 1.0625 -9.8125 L 4.953125 -9.8125 C 5.585938 -9.8125 6.097656 -9.765625 6.484375 -9.671875 C 6.878906 -9.578125 7.234375 -9.410156 7.546875 -9.171875 Z M 7.1875 -7.015625 C 7.1875 -7.210938 7.140625 -7.425781 7.046875 -7.65625 C 6.953125 -7.894531 6.820312 -8.085938 6.65625 -8.234375 C 6.476562 -8.398438 6.269531 -8.507812 6.03125 -8.5625 C 5.789062 -8.625 5.472656 -8.65625 5.078125 -8.65625 L 2.359375 -8.65625 L 2.359375 -5.15625 L 4.953125 -5.15625 C 5.710938 -5.15625 6.273438 -5.304688 6.640625 -5.609375 C 7.003906 -5.910156 7.1875 -6.378906 7.1875 -7.015625 Z M 7.1875 -7.015625 "/></g></g></g><g fill="#ff6a3e" fill-opacity="1"><g transform="translate(127.330372, 18.322835)"><g><path d="M 5.40625 -2.625 C 5.46875 -2.4375 5.59375 -2.03125 5.78125 -1.40625 C 5.882812 -1.726562 6.050781 -2.226562 6.28125 -2.90625 L 8.65625 -9.8125 L 10.40625 -9.8125 L 10.40625 0 L 9.15625 0 L 9.15625 -8.203125 L 6.296875 0 L 5.125 0 L 2.28125 -8.34375 L 2.28125 0 L 1.046875 0 L 1.046875 -9.8125 L 3 -9.8125 Z M 5.40625 -2.625 "/></g></g></g><g fill="#ff6a3e" fill-opacity="1"><g transform="translate(138.744672, 18.322835)"><g><path d="M 8.1875 -8.65625 L 2.390625 -8.65625 L 2.390625 -5.640625 L 7.8125 -5.640625 L 7.8125 -4.5 L 2.390625 -4.5 L 2.390625 -1.15625 L 8.40625 -1.15625 L 8.40625 0 L 1.078125 0 L 1.078125 -9.8125 L 8.1875 -9.8125 Z M 8.1875 -8.65625 "/></g></g></g><g fill="#ff6a3e" fill-opacity="1"><g transform="translate(147.884332, 18.322835)"><g><path d="M 7.5625 -2.109375 L 7.5625 -9.8125 L 8.8125 -9.8125 L 8.8125 0 L 7.484375 0 L 2.328125 -7.703125 L 2.328125 0 L 1.078125 0 L 1.078125 -9.8125 L 2.40625 -9.8125 Z M 7.5625 -2.109375 "/></g></g></g><g fill="#ff6a3e" fill-opacity="1"><g transform="translate(157.777643, 18.322835)"><g><path d="M 8.078125 -8.65625 L 4.84375 -8.65625 L 4.84375 0 L 3.53125 0 L 3.53125 -8.65625 L 0.296875 -8.65625 L 0.296875 -9.8125 L 8.078125 -9.8125 Z M 8.078125 -8.65625 "/></g></g></g></svg>